<mxfile host="app.diagrams.net" modified="2020-10-02T02:48:18.388Z" agent="5.0 (Macintosh; Intel Mac OS X 10_15_6) AppleWebKit/537.36 (KHTML, like Gecko) Chrome/85.0.4183.121 Safari/537.36" etag="vBl5m3hx_nunJBiRuagu" version="13.7.2" type="github">
  <diagram id="S0jVbe6z213CAZg4sw0W" name="Page-1">
    <mxGraphModel dx="1426" dy="740" grid="1" gridSize="10" guides="1" tooltips="1" connect="1" arrows="1" fold="1" page="1" pageScale="1" pageWidth="827" pageHeight="1169" math="0" shadow="0">
      <root>
        <mxCell id="0" />
        <mxCell id="1" parent="0" />
        <mxCell id="dAHWYHgrOFg6X7nAU1P5-3" value="" style="edgeStyle=orthogonalEdgeStyle;rounded=0;orthogonalLoop=1;jettySize=auto;html=1;" edge="1" parent="1" source="dAHWYHgrOFg6X7nAU1P5-1" target="dAHWYHgrOFg6X7nAU1P5-2">
          <mxGeometry relative="1" as="geometry" />
        </mxCell>
        <mxCell id="dAHWYHgrOFg6X7nAU1P5-1" value="变更发起" style="rounded=1;whiteSpace=wrap;html=1;" vertex="1" parent="1">
          <mxGeometry x="40" y="200" width="120" height="60" as="geometry" />
        </mxCell>
        <mxCell id="dAHWYHgrOFg6X7nAU1P5-5" value="" style="edgeStyle=orthogonalEdgeStyle;rounded=0;orthogonalLoop=1;jettySize=auto;html=1;" edge="1" parent="1" source="dAHWYHgrOFg6X7nAU1P5-2" target="dAHWYHgrOFg6X7nAU1P5-4">
          <mxGeometry relative="1" as="geometry" />
        </mxCell>
        <mxCell id="dAHWYHgrOFg6X7nAU1P5-2" value="前置防御" style="rounded=1;whiteSpace=wrap;html=1;" vertex="1" parent="1">
          <mxGeometry x="240" y="200" width="120" height="60" as="geometry" />
        </mxCell>
        <mxCell id="dAHWYHgrOFg6X7nAU1P5-7" value="" style="edgeStyle=orthogonalEdgeStyle;rounded=0;orthogonalLoop=1;jettySize=auto;html=1;" edge="1" parent="1" source="dAHWYHgrOFg6X7nAU1P5-4" target="dAHWYHgrOFg6X7nAU1P5-6">
          <mxGeometry relative="1" as="geometry" />
        </mxCell>
        <mxCell id="dAHWYHgrOFg6X7nAU1P5-9" value="" style="edgeStyle=orthogonalEdgeStyle;rounded=0;orthogonalLoop=1;jettySize=auto;html=1;" edge="1" parent="1" source="dAHWYHgrOFg6X7nAU1P5-4" target="dAHWYHgrOFg6X7nAU1P5-8">
          <mxGeometry relative="1" as="geometry" />
        </mxCell>
        <mxCell id="dAHWYHgrOFg6X7nAU1P5-4" value="分批变更" style="rounded=1;whiteSpace=wrap;html=1;" vertex="1" parent="1">
          <mxGeometry x="440" y="200" width="120" height="60" as="geometry" />
        </mxCell>
        <mxCell id="dAHWYHgrOFg6X7nAU1P5-6" value="后置防御" style="rounded=1;whiteSpace=wrap;html=1;" vertex="1" parent="1">
          <mxGeometry x="640" y="200" width="120" height="60" as="geometry" />
        </mxCell>
        <mxCell id="dAHWYHgrOFg6X7nAU1P5-10" style="edgeStyle=orthogonalEdgeStyle;rounded=0;orthogonalLoop=1;jettySize=auto;html=1;exitX=0;exitY=0.5;exitDx=0;exitDy=0;entryX=0.5;entryY=1;entryDx=0;entryDy=0;" edge="1" parent="1" source="dAHWYHgrOFg6X7nAU1P5-8" target="dAHWYHgrOFg6X7nAU1P5-2">
          <mxGeometry relative="1" as="geometry" />
        </mxCell>
        <mxCell id="dAHWYHgrOFg6X7nAU1P5-8" value="变更进度订阅" style="shape=process;whiteSpace=wrap;html=1;backgroundOutline=1;rounded=1;" vertex="1" parent="1">
          <mxGeometry x="440" y="340" width="120" height="60" as="geometry" />
        </mxCell>
      </root>
    </mxGraphModel>
  </diagram>
</mxfile>
